<?xml version="1.0" encoding="utf-8"?>
<!-- Created by UniConvertor 2.0rc5 (https://sk1project.net/) -->
<svg xmlns="http://www.w3.org/2000/svg" height="711.0pt" viewBox="0 0 746.0 711.0" width="746.0pt" version="1.1" xmlns:xlink="http://www.w3.org/1999/xlink" id="20012392-b252-11f0-8bd2-1b43cbbf7630">

<g>
	<g>
		<path style="fill:#000000;" d="M 171.6,313.7 C 172.7,317.2 173.0,325.2 173.0,346.3 L 173.0,374.2 176.3,373.6 C 178.0,373.3 186.7,372.1 195.5,371.0 204.3,369.9 213.4,368.7 215.8,368.4 L 220.0,367.9 220.0,360.8 220.0,353.8 213.3,354.4 C 209.5,354.7 202.8,355.2 198.3,355.6 L 190.0,356.2 190.0,332.6 190.0,309.0 180.1,309.0 170.2,309.0 171.6,313.7 Z" />
		<path style="fill:#000000;" d="M 223.6,310.7 C 224.1,311.7 224.6,325.0 224.8,340.3 L 225.1,368.1 236.3,367.4 C 242.5,367.1 254.5,366.5 263.0,366.1 L 278.5,365.5 278.8,358.6 279.1,351.7 261.0,352.3 243.0,352.9 243.0,347.5 243.0,342.0 257.5,342.0 272.0,342.0 272.0,336.0 272.0,330.0 257.4,330.0 242.9,330.0 243.2,326.2 243.5,322.5 261.3,322.2 279.0,322.0 279.0,315.5 279.0,309.0 250.9,309.0 C 224.5,309.0 222.8,309.1 223.6,310.7 Z" />
		<path style="fill:#000000;" d="M 289.9,310.9 C 291.5,313.8 291.3,319.2 288.5,342.5 287.1,354.0 286.0,363.8 286.0,364.2 286.0,364.7 288.2,365.0 290.9,365.0 296.7,365.0 296.2,366.5 298.6,344.8 299.5,336.2 300.6,329.3 301.0,329.5 301.3,329.7 304.1,335.6 307.1,342.7 313.2,357.0 317.4,362.4 323.5,363.6 325.5,363.9 327.5,363.9 327.9,363.4 328.4,362.9 331.3,356.0 334.4,348.0 337.6,340.0 340.5,333.1 341.0,332.7 341.4,332.2 342.3,336.3 343.0,341.7 343.6,347.1 344.5,354.0 344.8,357.0 L 345.5,362.5 354.8,362.8 C 363.4,363.1 364.1,362.9 363.7,361.3 363.4,360.3 361.9,349.5 360.4,337.2 358.2,319.6 357.8,314.3 358.7,311.9 L 359.8,309.0 348.5,309.0 337.2,309.0 331.4,323.7 C 328.3,331.9 325.4,338.9 325.0,339.3 324.6,339.8 321.3,333.2 317.7,324.8 L 311.1,309.5 300.0,309.2 C 289.2,308.9 288.9,309.0 289.9,310.9 Z" />
		<path style="fill:#000000;" d="M 443.6,313.7 C 444.6,317.1 445.0,324.5 445.0,341.7 L 445.0,365.0 453.5,365.0 462.0,365.0 462.0,357.0 462.0,349.0 473.3,349.0 C 489.8,349.0 496.1,346.7 499.9,339.2 504.0,331.0 503.0,319.2 497.8,314.3 492.7,309.5 489.6,309.0 465.1,309.0 L 442.2,309.0 443.6,313.7 Z M 482.8,324.6 C 485.4,326.4 485.7,330.6 483.3,333.2 482.0,334.7 480.1,335.0 471.8,335.0 L 462.0,335.0 462.0,329.0 462.0,323.0 471.3,323.0 C 478.1,323.0 481.2,323.4 482.8,324.6 Z" />
		<path style="fill:#000000;" d="M 502.1,312.0 C 506.1,314.5 526.1,335.3 526.0,336.9 526.0,337.2 520.1,344.0 513.1,352.0 506.0,360.0 500.3,366.6 500.4,366.6 500.4,366.7 505.0,367.0 510.5,367.4 L 520.5,368.0 528.3,358.5 C 532.6,353.3 536.5,349.0 536.8,349.0 537.2,349.0 541.5,353.4 546.2,358.8 551.0,364.2 555.7,369.3 556.7,370.2 558.3,371.6 581.5,375.8 582.5,374.9 582.6,374.7 575.4,366.2 566.3,356.2 550.5,338.6 549.8,337.7 551.1,335.4 551.8,334.1 557.6,327.6 563.9,321.0 L 575.5,309.0 564.0,309.0 552.5,309.0 546.0,317.0 C 542.4,321.4 539.2,325.0 538.9,325.0 538.6,325.0 535.0,321.4 531.1,317.0 L 523.8,309.0 510.7,309.0 497.5,309.0 502.1,312.0 Z" />
		<path style="fill:#000000;" d="M 258.1,402.6 C 255.5,405.9 255.4,409.1 257.9,412.1 260.0,414.7 265.8,415.3 268.4,413.0 270.9,411.0 268.9,409.8 265.3,411.2 262.8,412.1 261.8,412.1 260.6,411.1 258.7,409.5 258.5,405.9 260.2,404.2 261.6,402.8 265.6,402.6 266.5,404.0 266.8,404.5 267.7,404.7 268.6,404.3 269.9,403.8 269.9,403.5 268.4,401.9 265.8,399.0 260.6,399.4 258.1,402.6 Z" />
		<path style="fill:#000000;" d="M 279.0,407.5 L 279.0,415.0 284.0,415.0 C 287.8,415.0 289.0,414.6 289.0,413.5 289.0,412.5 287.9,412.0 285.5,412.0 L 282.0,412.0 282.0,406.0 C 282.0,401.3 281.7,400.0 280.5,400.0 279.3,400.0 279.0,401.5 279.0,407.5 Z" />
		<path style="fill:#000000;" d="M 298.0,407.5 L 298.0,415.0 303.5,415.0 C 307.7,415.0 309.0,414.7 309.0,413.5 309.0,412.4 307.9,412.0 305.0,412.0 302.1,412.0 301.0,411.6 301.0,410.5 301.0,409.5 302.0,409.0 304.0,409.0 306.0,409.0 307.0,408.5 307.0,407.5 307.0,406.5 306.0,406.0 304.0,406.0 301.7,406.0 301.0,405.6 301.0,404.0 301.0,402.4 301.7,402.0 304.5,402.0 306.4,402.0 308.0,401.5 308.0,401.0 308.0,400.4 305.8,400.0 303.0,400.0 L 298.0,400.0 298.0,407.5 Z" />
		<path style="fill:#000000;" d="M 320.5,407.2 C 317.3,414.1 317.4,417.7 320.6,413.1 322.7,410.1 328.2,410.2 330.3,413.2 333.2,417.7 333.2,413.9 330.3,407.3 326.2,398.1 324.8,398.1 320.5,407.2 Z M 328.0,408.2 C 328.0,408.7 326.9,409.0 325.5,409.0 322.6,409.0 322.6,409.1 324.1,405.3 L 325.2,402.5 326.5,405.0 C 327.3,406.4 327.9,407.8 328.0,408.2 Z" />
		<path style="fill:#000000;" d="M 342.0,407.5 C 342.0,411.8 342.4,415.0 343.0,415.0 343.6,415.0 344.0,412.7 344.0,410.0 344.0,407.2 344.3,405.0 344.8,405.0 345.2,405.0 347.0,407.3 348.9,410.0 353.7,417.2 355.0,416.7 355.0,407.5 355.0,401.6 354.7,400.0 353.6,400.0 352.6,400.0 352.0,401.4 351.8,404.2 L 351.5,408.5 348.6,404.2 C 347.0,401.8 344.9,400.0 343.9,400.0 342.2,400.0 342.0,400.8 342.0,407.5 Z" />
		<path style="fill:#000000;" d="M 376.0,407.5 L 376.0,415.0 381.5,415.0 C 385.7,415.0 387.0,414.7 387.0,413.5 387.0,412.4 385.8,412.0 382.5,412.0 379.2,412.0 378.0,411.6 378.0,410.5 378.0,409.5 379.1,409.0 381.5,409.0 383.9,409.0 385.0,408.5 385.0,407.5 385.0,406.4 383.9,406.0 381.4,406.0 378.6,406.0 377.9,405.7 378.2,404.2 378.4,403.0 379.6,402.4 382.3,402.2 387.8,401.7 386.8,400.0 381.0,400.0 L 376.0,400.0 376.0,407.5 Z" />
		<path style="fill:#000000;" d="M 396.0,400.6 C 396.0,400.9 396.9,402.5 398.1,404.1 L 400.1,407.0 397.5,410.7 C 394.5,415.2 396.2,416.8 399.6,412.5 L 401.8,409.7 403.5,412.4 C 404.5,413.8 405.9,415.0 406.6,415.0 408.5,415.0 408.3,414.0 406.0,411.0 403.5,407.8 403.5,406.5 406.1,402.9 407.7,400.6 407.8,400.0 406.6,400.0 405.8,400.0 404.4,401.0 403.5,402.2 L 401.9,404.5 400.3,402.2 C 398.9,400.2 396.0,399.1 396.0,400.6 Z" />
		<path style="fill:#000000;" d="M 417.0,407.5 C 417.0,413.5 417.3,415.0 418.5,415.0 419.5,415.0 420.0,414.0 420.0,412.0 420.0,409.2 420.3,409.0 423.5,409.0 426.8,409.0 429.0,407.0 429.0,404.1 429.0,401.8 425.7,400.0 421.4,400.0 L 417.0,400.0 417.0,407.5 Z M 425.5,404.5 C 425.5,405.9 424.7,406.6 422.8,406.8 420.4,407.1 420.0,406.8 420.0,404.5 420.0,402.2 420.4,401.9 422.8,402.2 424.7,402.4 425.5,403.1 425.5,404.5 Z" />
		<path style="fill:#000000;" d="M 437.0,407.5 L 437.0,415.0 443.0,415.0 C 447.7,415.0 449.0,414.7 449.0,413.5 449.0,412.4 447.8,412.0 444.5,412.0 441.2,412.0 440.0,411.6 440.0,410.5 440.0,409.5 441.1,409.0 443.5,409.0 445.9,409.0 447.0,408.5 447.0,407.5 447.0,406.5 445.9,406.0 443.5,406.0 440.7,406.0 440.0,405.6 440.0,404.0 440.0,402.3 440.7,402.0 444.0,402.0 446.2,402.0 448.0,401.5 448.0,401.0 448.0,400.4 445.5,400.0 442.5,400.0 L 437.0,400.0 437.0,407.5 Z" />
		<path style="fill:#000000;" d="M 458.0,407.5 C 458.0,413.5 458.3,415.0 459.5,415.0 460.5,415.0 461.0,414.0 461.0,412.0 461.0,410.3 461.4,409.0 461.9,409.0 462.5,409.0 463.7,410.3 464.7,412.0 465.6,413.7 467.3,415.0 468.3,415.0 470.1,415.0 470.1,414.9 468.6,412.5 467.1,410.2 467.1,409.7 468.5,407.8 471.6,403.2 469.1,400.0 462.4,400.0 L 458.0,400.0 458.0,407.5 Z M 466.5,404.5 C 466.5,405.9 465.7,406.6 463.8,406.8 461.4,407.1 461.0,406.8 461.0,404.5 461.0,402.2 461.4,401.9 463.8,402.2 465.7,402.4 466.5,403.1 466.5,404.5 Z" />
		<path style="fill:#000000;" d="M 479.0,401.0 C 479.0,401.5 479.9,402.0 481.0,402.0 482.8,402.0 483.0,402.7 483.0,408.5 483.0,413.5 483.3,415.0 484.5,415.0 485.5,415.0 486.0,413.4 486.2,408.7 486.5,403.1 486.7,402.5 488.8,402.2 493.4,401.5 490.8,400.0 485.0,400.0 481.7,400.0 479.0,400.4 479.0,401.0 Z" />
	</g>
</g>
</svg>